<svg xmlns="http://www.w3.org/2000/svg" version="1.1" xmlns:xlink="http://www.w3.org/1999/xlink" xmlns:svgjs="http://svgjs.dev/svgjs" width="1500" height="244" viewBox="0 0 1500 244"><g transform="matrix(1,0,0,1,1.870246544896645,1.080481629167295)"><svg viewBox="0 0 294 48" data-background-color="#ffffff" preserveAspectRatio="xMidYMid meet" height="244" width="1500" xmlns="http://www.w3.org/2000/svg" xmlns:xlink="http://www.w3.org/1999/xlink"><g id="tight-bounds" transform="matrix(1,0,0,1,0.0560516526887227,0.21539999999998827)"><svg viewBox="0 0 293.88789669462255 47.5692" height="47.5692" width="293.88789669462255"><g><svg viewBox="0 0 293.88789669462255 47.5692" height="47.5692" width="293.88789669462255"><g><svg viewBox="0 0 293.88789669462255 47.5692" height="47.5692" width="293.88789669462255"><g id="textblocktransform"><svg viewBox="0 0 293.88789669462255 47.5692" height="47.5692" width="293.88789669462255" id="textblock"><g><svg viewBox="0 0 293.88789669462255 47.5692" height="47.5692" width="293.88789669462255"><g><svg><g></g><g></g></svg></g><g><svg><g></g><g><svg></svg></g></svg></g><g id="text-0"><svg viewBox="0 0 293.88789669462255 47.5692" height="47.5692" width="293.88789669462255"><g><svg xmlns="http://www.w3.org/2000/svg" viewBox="0 0 75 81.08" x="0" y="0" width="44.002096694622594" height="47.5692" class="icon-cg-0" data-fill-palette-color="accent" id="cg-0"><g data-name="Layer 2" fill="#0055d1" data-fill-palette-color="accent"><g data-name="Layer 2" fill="#0055d1" data-fill-palette-color="accent"><path d="M74 65.27V77.58a2.51 2.51 0 0 1-2.5 2.5H3.5A2.51 2.51 0 0 1 1 77.58V65.27H0V77.58a3.5 3.5 0 0 0 3.5 3.5h68a3.5 3.5 0 0 0 3.5-3.5V65.27Z" fill="#0055d1" data-fill-palette-color="accent"></path><path d="M0 49.46V64.27H1V49.46Zm74 0V64.27h1V49.46Z" fill="#0055d1" data-fill-palette-color="accent"></path><path d="M0 27.94V48.46H1V28.94H74V48.46h1V27.94Z" fill="#0055d1" data-fill-palette-color="accent"></path><path d="M71.5 0H3.5A3.5 3.5 0 0 0 0 3.5V28.94H75V3.5A3.5 3.5 0 0 0 71.5 0ZM1 27.94V3.5A2.5 2.5 0 0 1 3.5 1h68A2.5 2.5 0 0 1 74 3.5V27.94Z" fill="#0055d1" data-fill-palette-color="accent"></path><path d="M71.5 0H3.5A3.5 3.5 0 0 0 0 3.5v45H75V3.5A3.5 3.5 0 0 0 71.5 0ZM8.86 37.85a2.29 2.29 0 1 1 2.29-2.29A2.29 2.29 0 0 1 8.86 37.85Zm9.53 0a2.29 2.29 0 1 1 2.29-2.29A2.3 2.3 0 0 1 18.39 37.85Zm9.53 0a2.29 2.29 0 1 1 2.28-2.29A2.3 2.3 0 0 1 27.92 37.85Zm9.53 0a2.29 2.29 0 1 1 2.28-2.29A2.29 2.29 0 0 1 37.45 37.85Zm9.52 0a2.29 2.29 0 1 1 2.29-2.29A2.29 2.29 0 0 1 47 37.85Zm9.53 0a2.29 2.29 0 1 1 2.29-2.29A2.29 2.29 0 0 1 56.5 37.85Zm9.53 0a2.29 2.29 0 1 1 2.29-2.29A2.29 2.29 0 0 1 66 37.85ZM1 27.94V3.5A2.5 2.5 0 0 1 3.5 1h68A2.5 2.5 0 0 1 74 3.5V27.94ZM0 65.27V77.58a3.5 3.5 0 0 0 3.5 3.5h68a3.5 3.5 0 0 0 3.5-3.5V65.27ZM0 49.46V64.27H75V49.46Z" fill="#0055d1" data-fill-palette-color="accent"></path></g></g></svg></g><g transform="matrix(1,0,0,1,55.232896694622596,0)"><svg width="238.65499999999997" viewBox="4 -29.4 147.49 29.4" height="47.5692" data-palette-color="#001f3f"><path d="M11.1 0L4.5 0 4.5-25.4 4-29.4 11.6-29.4 22.9-9.4 34.6-29.4 41.35-29.4 41.35 0 34.75 0 34.75-18.65 34.2-18.65 32.25-14.3 25.95-3 19.9-3 13.6-14.3 11.6-18.65 11.1-18.65 11.1 0ZM64.5 0L54.45 0Q51.95 0 50.6-0.65 49.25-1.3 48.67-2.3 48.1-3.3 47.97-4.4 47.85-5.5 47.85-6.4L47.85-6.4 47.85-16Q47.85-16.75 47.97-17.82 48.1-18.9 48.67-19.95 49.25-21 50.62-21.7 52-22.4 54.45-22.4L54.45-22.4 65.2-22.4Q68.5-22.4 70.37-21.78 72.25-21.15 73.02-19.75 73.8-18.35 73.8-16L73.8-16 73.8-8.6 65.05-8.6Q60.55-8.6 57.72-8.8 54.9-9 53.95-9.05L53.95-9.05 53.95-6.3Q53.9-4.3 56.35-4.3L56.35-4.3 58.9-4.3Q61.6-4.3 64.17-4.38 66.75-4.45 68.9-4.58 71.05-4.7 72.35-4.8L72.35-4.8 74.35-1.55Q74.35 0 64.5 0L64.5 0ZM53.95-16.1L53.95-12.9 67.7-12.9 67.7-16.1Q67.7-17.1 67.47-17.5 67.25-17.9 66.15-18 65.05-18.1 62.4-18.1L62.4-18.1 56.35-18.1Q53.95-18.1 53.95-16.1L53.95-16.1ZM85.44 0L79.34 0 79.34-22.4 83.44-22.4 84.69-21.8Q86.14-22.05 88.25-22.23 90.34-22.4 93.25-22.4L93.25-22.4 95.75-22.4Q97.19-22.4 98.55-22.03 99.89-21.65 100.55-20.95L100.55-20.95Q101.84-21.6 104.14-22 106.44-22.4 110.15-22.4L110.15-22.4 112.65-22.4Q115.15-22.4 116.5-21.7 117.84-21 118.42-19.95 119-18.9 119.12-17.82 119.25-16.75 119.25-16L119.25-16 119.25 0 113.15 0 113.15-16.1Q113.15-18.1 110.75-18.1L110.75-18.1 103.75-18.1Q102.94-18.1 102.64-17.9 102.34-17.7 102.34-17L102.34-17 102.34 0 96.25 0 96.25-16.1Q96.25-18.1 93.84-18.1L93.84-18.1 86.94-18.1Q86-18.1 85.72-17.93 85.44-17.75 85.44-17L85.44-17 85.44 0ZM144.89 0L131.09 0Q127.74 0 126.12-1.35 124.49-2.7 124.49-5.75L124.49-5.75 124.49-16Q124.49-16.75 124.62-17.82 124.74-18.9 125.32-19.95 125.89-21 127.27-21.7 128.64-22.4 131.09-22.4L131.09-22.4 144.89-22.4Q147.39-22.4 148.74-21.7 150.09-21 150.67-19.95 151.24-18.9 151.37-17.82 151.49-16.75 151.49-16L151.49-16 151.49-6.4Q151.49-5.5 151.37-4.4 151.24-3.3 150.64-2.3 150.04-1.3 148.69-0.65 147.34 0 144.89 0L144.89 0ZM132.99-4.3L132.99-4.3 142.99-4.3Q145.44-4.3 145.44-6.3L145.44-6.3 145.44-16.1Q145.44-18.1 142.99-18.1L142.99-18.1 132.99-18.1Q130.59-18.1 130.59-16.1L130.59-16.1 130.59-6.3Q130.59-4.3 132.99-4.3Z" opacity="1" transform="matrix(1,0,0,1,0,0)" fill="#001f3f" class="wordmark-text-0" data-fill-palette-color="primary"></path></svg></g></svg></g></svg></g></svg></g></svg></g></svg></g><defs></defs></svg><rect width="293.88789669462255" height="47.5692" fill="none" stroke="none" visibility="hidden"></rect></g></svg></g></svg>